<svg xmlns="http://www.w3.org/2000/svg" version="1.1" xmlns:xlink="http://www.w3.org/1999/xlink" viewBox="0 0 200 200"><rect width="200" height="200" fill="url('#gradient')"></rect><defs><linearGradient id="gradient" gradientTransform="rotate(45 0.5 0.5)"><stop offset="0%" stop-color="#ffffff"></stop><stop offset="100%" stop-color="#f7f7f7"></stop></linearGradient></defs><g><g fill="#283855" transform="matrix(6.087186261558784,0,0,6.087186261558784,3.4832873323949514,143.25383348540555)" stroke="#739bab" stroke-width="0.25"><path d="M1.07-14.22L5.58-14.22L8.75-4.33L11.91-14.22L16.43-14.22L16.43 0L12.99 0L12.99-3.32L13.32-10.12L9.88 0L7.62 0L4.17-10.13L4.50-3.32L4.50 0L1.07 0L1.07-14.22ZM30.64-7.47L30.64-6.82Q30.64-4.74 29.87-3.13Q29.10-1.53 27.68-0.67Q26.26 0.20 24.44 0.20Q22.63 0.20 21.22-0.64Q19.81-1.47 19.03-3.03Q18.24-4.58 18.20-6.59L18.20-6.59L18.20-7.39Q18.20-9.48 18.97-11.08Q19.74-12.68 21.17-13.54Q22.60-14.41 24.42-14.41L24.42-14.41Q26.23-14.41 27.65-13.55Q29.06-12.70 29.85-11.11Q30.63-9.52 30.64-7.47L30.64-7.47ZM27.16-6.76L27.16-7.41Q27.16-9.53 26.45-10.63Q25.74-11.73 24.42-11.73L24.42-11.73Q21.85-11.73 21.70-7.86L21.70-7.86L21.69-6.82Q21.69-4.73 22.38-3.60Q23.08-2.48 24.44-2.48L24.44-2.48Q25.74-2.48 26.45-3.58Q27.15-4.69 27.16-6.76L27.16-6.76Z"></path></g></g></svg>